<svg xmlns="http://www.w3.org/2000/svg" xmlns:xlink="http://www.w3.org/1999/xlink" id="Layer_1" x="0px" y="0px" viewBox="0 0 135 86" style="enable-background:new 0 0 135 86;" xml:space="preserve">  <style type="text/css">	.st0{fill:#0A0908;}	.st1{fill:#FAB915;}	.st2{fill:#417B5A;}	.st3{fill:#FF6700;}	.st4{display:none;}	.st5{display:inline;fill:#A8BACC;}	.st6{display:inline;fill:#CFDEE5;}	.st7{opacity:0.5;fill:#FFFFFF;}	.st8{fill:#E89044;}	.st9{fill:#88A664;}	.st10{opacity:0.5;fill:#FAB915;}	.st11{fill:#A2665D;}	.st12{fill:#A8BACC;}	.st13{fill:#FFFFFF;}</style>  <g id="XMLID_319_">	<g id="XMLID_713_">		<g id="XMLID_8_">			<path id="XMLID_29_" class="st0" d="M2.5,81.9c0-2,0-4.3,0-6.3c0-0.6-0.1-1.2-0.8-1.3h3.1c-0.7,0.1-0.8,0.8-0.8,1.3v3h3.8v-3    c0-0.6-0.1-1.2-0.8-1.3h3.1c-0.7,0.1-0.8,0.8-0.8,1.3c0,2,0,4.3,0,6.3c0,0.6,0.1,1.2,0.8,1.3H7.1c0.7-0.1,0.8-0.8,0.8-1.3v-3H4.1    v3c0,0.6,0.1,1.2,0.8,1.3H1.8C2.4,83.1,2.5,82.5,2.5,81.9z"></path>			<path id="XMLID_137_" class="st0" d="M15.9,82.1c-0.3,0.8-0.9,1.2-2.2,1.2c-1.8,0-2.9-1.5-2.9-3.2c0-1.6,1-3.3,2.9-3.3    c1.2,0,1.9,0.5,2.1,1.3l-1.6,2.3L13,82.2C13.8,83.1,15.2,83.3,15.9,82.1z M12.9,81.9l1.2-1.7c0.8-1.2,0.4-3.1-0.3-3.1    C12.2,77.1,12,80.7,12.9,81.9z"></path>			<path id="XMLID_144_" class="st0" d="M22.4,83.2c-1.2,0.3-2,0-2.2-0.7c-0.4,0.5-1.1,0.8-1.7,0.8c-2.2,0-2.6-3,0-3.9    c0.6-0.2,1.7-0.5,1.7-1.1c0-1-1.7-1.3-2.6-0.2c0.5-0.9,1.4-1.3,2.1-1.3c1.4,0,2,0.9,2,2.6c0,0.9,0,1.7,0,2.6    C21.6,82.6,21.7,83.1,22.4,83.2z M20.1,79.1c-3.4,1.5-1.7,5,0,3.2C20.1,81.2,20.1,80.1,20.1,79.1z"></path>			<path id="XMLID_167_" class="st0" d="M23.6,82c0-2.2,0-4.3,0-6.5c0-0.6-0.1-1.1-0.8-1.2c0.8,0,1.6-0.2,2.3-0.5v1.7    c0,2.2,0,4.4,0,6.6c0,0.6,0.1,1.1,0.8,1.2c-1,0-2,0-3,0C23.5,83.1,23.6,82.6,23.6,82z"></path>			<path id="XMLID_170_" class="st0" d="M30.4,82.7c-1.3,1.3-3.6,0.5-3.6-2c0-0.9,0-1.7,0-2.6c0-0.6-0.1-1.1-0.8-1.2    c1.1,0,2.1-0.6,2.3-1.3V77h1v0.3h-1c0,1.2,0,2.4,0,3.6C28.3,82.6,29.1,83.5,30.4,82.7z"></path>			<path id="XMLID_173_" class="st0" d="M35.5,82c0-0.9,0-1.8,0-2.7c0-2.7-2.5-2.4-2.6-0.2V82c0,0.6,0.1,1.1,0.8,1.2c-1,0-2,0-3,0    c0.7-0.1,0.8-0.6,0.8-1.2c0-2.2,0-4.3,0-6.5c0-0.6-0.1-1.1-0.8-1.2c0.8,0,1.6-0.2,2.3-0.5c0,1.4,0,2.8,0,4.2c1.1-1.9,4-1.3,4,1.5    c0,0.9,0,1.7,0,2.6c0,0.6,0.1,1.1,0.8,1.2c-1,0-2,0-3,0C35.4,83.1,35.5,82.6,35.5,82z"></path>			<path id="XMLID_175_" class="st0" d="M43.7,77c-0.7,0.1-1,0.6-1.3,1.2l-2,5c-0.4,1.1-1,2.4-1.9,2.4c-1.1,0-1.2-1.1-0.8-1.9    c0.9,1.5,2.1,0.4,2.5-0.8l-1.9-4.8c-0.2-0.6-0.6-1.2-1.3-1.2c1.1-0.3,2.3-0.1,2.8,1.2c0.4,0.9,0.7,1.8,1.1,2.8l1.1-2.8    c0.2-0.6,0.3-1.1-0.3-1.2C42.4,77,43,77,43.7,77z"></path>			<path id="XMLID_177_" class="st0" d="M48.3,74.2c2.1,0,4.1,0,6.2,0l0.3,1.1v1.1c-0.1-1.2-1-2-2.1-2c-0.7,0-1.3,0-2,0    c0,1.3,0,2.8,0,4.1h1c1,0,1.6-0.2,1.8-1.4v3.1c-0.2-1.2-0.7-1.4-1.8-1.4h-1l0,3c0,0.6,0.1,1.2,0.8,1.3h-3.1    c0.7-0.1,0.8-0.8,0.8-1.3l0-6.3C49.1,74.9,49,74.3,48.3,74.2z"></path>			<path id="XMLID_179_" class="st0" d="M57.7,83.3c-3.9,0-3.9-6.5,0-6.5C61.6,76.8,61.6,83.3,57.7,83.3z M57.7,77.1    c-1.9,0-1.9,5.9,0,6C59.5,83.1,59.6,77.1,57.7,77.1z"></path>			<path id="XMLID_182_" class="st0" d="M64.5,83.3c-3.9,0-3.9-6.5,0-6.5C68.4,76.8,68.4,83.3,64.5,83.3z M64.5,77.1    c-1.9,0-1.9,5.9,0,6C66.3,83.1,66.4,77.1,64.5,77.1z"></path>			<path id="XMLID_185_" class="st0" d="M75,83.2c-1.4,0.4-2.3-0.1-2.3-1.2c-0.3,0.8-0.8,1.3-1.4,1.3c-3.9,0-3.9-6.5,0-6.5    c0.6,0,1.2,0.5,1.4,1.3c0-0.9,0-1.7,0-2.6c0-0.6-0.1-1.1-0.8-1.2c0.8,0,1.6-0.2,2.3-0.5v1.7c0,2.2,0,4.4,0,6.6    C74.2,82.6,74.3,83.1,75,83.2z M71.3,77.1c-1.9,0-1.9,5.9,0,6C73.2,83.1,73.2,77.1,71.3,77.1z"></path>			<path id="XMLID_189_" class="st0" d="M85.1,82c-0.1-0.3-0.3-0.8-0.4-1.1h-3.1c-0.1,0.3-0.3,0.8-0.4,1.1c-0.2,0.6-0.3,1.1,0.4,1.2    c-0.6,0-1.3,0-1.9,0c0.7-0.1,1-0.6,1.2-1.2l2.9-8c1,2.6,1.9,5.4,2.9,8c0.2,0.6,0.6,1.1,1.2,1.2c-1.1,0-2.2,0-3.2,0    C85.4,83.1,85.3,82.7,85.1,82z M84.6,80.7c-0.5-1.3-0.9-2.7-1.4-4c-0.5,1.4-1,2.7-1.4,4H84.6z"></path>			<path id="XMLID_193_" class="st0" d="M94.5,83.2c-1.4,0.4-2.3-0.1-2.3-1.2c-0.3,0.8-0.8,1.3-1.4,1.3c-3.9,0-3.9-6.5,0-6.5    c0.6,0,1.2,0.5,1.4,1.3c0-0.9,0-1.7,0-2.6c0-0.6-0.1-1.1-0.8-1.2c0.8,0,1.6-0.2,2.3-0.5v1.7c0,2.2,0,4.4,0,6.6    C93.7,82.6,93.8,83.1,94.5,83.2z M90.8,77.1c-1.9,0-1.9,5.9,0,6C92.7,83.1,92.7,77.1,90.8,77.1z"></path>			<path id="XMLID_196_" class="st0" d="M101.8,83.2c-1.4,0.4-2.3-0.1-2.3-1.2c-0.3,0.8-0.8,1.3-1.4,1.3c-3.9,0-3.9-6.5,0-6.5    c0.6,0,1.2,0.5,1.4,1.3c0-0.9,0-1.7,0-2.6c0-0.6-0.1-1.1-0.8-1.2c0.8,0,1.6-0.2,2.3-0.5v1.7c0,2.2,0,4.4,0,6.6    C101,82.6,101.2,83.1,101.8,83.2z M98.1,77.1c-1.9,0-1.9,5.9,0,6C100.1,83.1,100.1,77.1,98.1,77.1z"></path>			<path id="XMLID_199_" class="st0" d="M103.2,82v-3.3c0-0.6-0.1-1.1-0.8-1.2c0.8,0,1.6-0.2,2.3-0.6v5c0,0.6,0.1,1.1,0.8,1.2    c-1,0-2,0-3,0C103,83.1,103.2,82.6,103.2,82z M102.9,75.7c0-0.5,0.4-1,1-1c0.5,0,1,0.4,1,1c0,0.5-0.4,1-1,1    C103.3,76.7,102.9,76.3,102.9,75.7z"></path>			<path id="XMLID_203_" class="st0" d="M111.1,82.1c-0.3,0.8-0.9,1.2-2.2,1.2c-1.9,0-2.9-1.6-2.9-3.2c0-3.2,3.1-3.8,4.7-2.9v1.9    c0-2.7-3.2-2.9-3.2,1C107.5,82.6,110,83.9,111.1,82.1z"></path>			<path id="XMLID_205_" class="st0" d="M115.9,82.7c-1.3,1.3-3.6,0.5-3.6-2c0-0.9,0-1.7,0-2.6c0-0.6-0.1-1.1-0.8-1.2    c1.1,0,2.1-0.6,2.3-1.3V77h1v0.3h-1c0,1.2,0,2.4,0,3.6C113.8,82.6,114.6,83.5,115.9,82.7z"></path>			<path id="XMLID_209_" class="st0" d="M117.1,82v-3.3c0-0.6-0.1-1.1-0.8-1.2c0.8,0,1.6-0.2,2.3-0.6v5c0,0.6,0.1,1.1,0.8,1.2    c-1,0-2,0-3,0C117,83.1,117.1,82.6,117.1,82z M116.8,75.7c0-0.5,0.4-1,1-1c0.5,0,1,0.4,1,1c0,0.5-0.4,1-1,1    C117.2,76.7,116.8,76.3,116.8,75.7z"></path>			<path id="XMLID_213_" class="st0" d="M122.8,83.3c-3.9,0-3.9-6.5,0-6.5C126.7,76.8,126.7,83.3,122.8,83.3z M122.8,77.1    c-1.9,0-1.9,5.9,0,6C124.7,83.1,124.7,77.1,122.8,77.1z"></path>			<path id="XMLID_216_" class="st0" d="M131.1,82c0-0.9,0-1.8,0-2.7c0-2.7-2.5-2.4-2.5-0.2V82c0,0.6,0.1,1.1,0.8,1.2c-1,0-2,0-3,0    c0.7-0.1,0.8-0.6,0.8-1.2c0-1,0-2.2,0-3.3c0-0.6-0.1-1.1-0.8-1.2c0.8,0,1.6-0.2,2.3-0.6v1c1.1-1.9,4-1.3,4,1.5V82    c0,0.6,0.1,1.1,0.8,1.2c-1,0-2,0-3,0C131,83.1,131.1,82.6,131.1,82z"></path>		</g>		<g id="XMLID_159_">			<g id="XMLID_307_">				<path id="XMLID_311_" class="st1" d="M22.9,42.7c-0.4-0.4-0.9-0.8-1.6-1.1v-0.2c2.4,0.2,3.6,0.3,4.9,0.3c1.3,0,2.5-0.1,4.8-0.3     v0.2c-0.6,0.3-1.2,0.7-1.6,1.1c-0.5,0.5-0.7,1.1-0.7,1.6v9.5l0.3,0c1-0.3,1.8-0.5,2.7-0.9c1.3-0.6,2.5-1.3,3.4-2.4l0.2,0     L35,51.1c-0.5,0.8-0.7,1.2-0.9,1.6c-0.2,0.4-0.3,0.7-0.5,1.3l0,0l0,0c0.2,0.6,0.3,0.9,0.5,1.3c0.2,0.4,0.4,0.8,0.9,1.6l0.4,0.6     l-0.2,0c-1-1.1-2.1-1.8-3.4-2.4c-0.8-0.4-1.7-0.6-2.7-0.9l-0.3,0v10.4c0,0.5,0.3,1.1,0.7,1.6c0.4,0.4,0.9,0.8,1.6,1.1v0.2     c-2.4-0.2-3.6-0.3-4.8-0.3c-1.3,0-2.5,0.1-4.9,0.3v-0.2c0.6-0.3,1.2-0.7,1.6-1.1c0.5-0.5,0.7-1.1,0.7-1.6V44.3     C23.7,43.7,23.4,43.2,22.9,42.7z M30,42.8c3.3-2.8,5.9-1.1,7-1.2c0.7-0.1,1.1-0.4,1.2-1.1l0.4,0.1c0.4,1.9,1.4,3.9,2.7,6.2     l-0.2,0c-1.7-1.9-4.9-4.2-7.8-4.6C32.2,42,30.8,42.5,30,42.8z"></path>				<path id="XMLID_308_" class="st1" d="M44.6,67.5c-1.3,0-2.6-0.2-3.6-0.7c-1-0.5-1.9-1.3-2.4-2.4c-0.4-0.8-0.6-1.8-0.6-3l0-6.7     c0-1.3-0.1-2.4-0.4-3.3c-0.3-0.9-1-1.6-2.1-2v-0.1c1.5,0.1,3.3,0.1,5,0.1c1.8,0,3.6,0,5-0.1v0.1c-1.1,0.4-1.7,1.1-2.1,2     c-0.4,0.9-0.4,2.1-0.4,3.3l0,6.8c0,2.3,0.6,3.7,1.5,4.6c0.6,0.5,1.3,0.8,2,1c0.6,0.1,1.1,0.1,1.7,0C47,67.3,45.8,67.5,44.6,67.5     z M57.1,49.4c-1.1,0.4-1.7,1.1-2.1,2c-0.4,0.9-0.4,2-0.4,3.3c0,3.3,0,6.7,0,10c0,0.5,0.3,1.1,0.7,1.6c0.4,0.4,0.9,0.8,1.6,1.1     v0.2c-2.4-0.2-3.6-0.3-4.9-0.3c-0.1,0-0.2,0-0.3,0c-0.6,0-1.2-0.2-1.6-0.6c-0.4-0.4-0.7-1-0.7-1.6c0-3.9,0-7.8,0-11.7     c-0.1-0.9-0.2-1.8-0.6-2.5c-0.4-0.7-1-1.2-1.8-1.5v-0.1c1.7,0.1,3.3,0.2,4.9,0.2c1.6,0,3.2-0.1,5.1-0.2V49.4z"></path>			</g>		</g>		<g id="XMLID_143_">			<g id="XMLID_337_">				<path id="XMLID_344_" class="st1" d="M84.5,50.9c-0.4-0.4-0.9-0.8-1.6-1.1v-0.2c2.3,0.2,3.6,0.3,4.9,0.3c1.3,0,2.5-0.1,4.8-0.3     v0.2c-0.6,0.3-1.2,0.7-1.6,1.1c-0.5,0.5-0.7,1.1-0.7,1.6l0,6.1l0,6.1c0,0.5,0.3,1.1,0.7,1.6c0.4,0.4,0.9,0.8,1.6,1.1v0.2     c-2.4-0.2-3.6-0.3-4.8-0.3c-1.3,0-2.5,0.1-4.9,0.3v-0.2c0.6-0.3,1.2-0.7,1.6-1.1c0.5-0.5,0.7-1.1,0.7-1.6l0-6.1l0-6.1     C85.3,51.9,85,51.4,84.5,50.9z M90.7,45.3c0,0.6-0.3,1.2-0.8,1.6c-0.5,0.4-1.2,0.7-2,0.7c-0.8,0-1.5-0.3-2-0.7     c-0.5-0.4-0.8-1-0.8-1.6c0-0.6,0.3-1.2,0.8-1.6c0.5-0.4,1.2-0.7,2-0.7c0.8,0,1.5,0.3,2,0.7C90.4,44.1,90.7,44.7,90.7,45.3z"></path>				<path id="XMLID_341_" class="st1" d="M99.6,49.5c0.4,0,0.7,0,1.1,0.1c-0.3,0-0.6,0.1-0.9,0.3c-1.2,0.5-2,1.8-2.6,3.5     c-0.7,2.1-0.9,4.7-0.7,6.9c0.6,6.3,5,9.4,10.6,5.2c-4.7,4.5-12.7,2.5-15-2.7c-0.5-1.2-0.8-2.5-0.8-3.8c0-1.3,0.3-2.6,0.8-3.9     C93.3,52,96,49.5,99.6,49.5z M105.4,67.9c-0.4,0-0.7,0-1.1-0.1c0.3,0,0.6-0.1,0.9-0.3c1.2-0.5,2-1.8,2.6-3.5     c0.7-2.1,0.9-4.7,0.7-6.9c-0.6-6.3-5-9.4-10.6-5.2c4.7-4.5,12.7-2.5,15,2.7c0.5,1.2,0.8,2.5,0.8,3.8c0,1.3-0.3,2.6-0.8,3.9     C111.7,65.5,108.9,67.9,105.4,67.9z"></path>				<path id="XMLID_338_" class="st1" d="M112.1,67.5c1.1-0.4,1.7-1.1,2.1-2c0.4-0.9,0.4-2,0.4-3.3c0-3.3,0-6.7,0-10     c0-0.5-0.3-1.1-0.7-1.6c-0.4-0.4-0.9-0.8-1.6-1.1v-0.2c2.4,0.2,3.6,0.3,4.9,0.3c0.1,0,0.2,0,0.3,0c0.6,0,1.2,0.2,1.6,0.6     c0.4,0.4,0.7,1,0.7,1.6c0,3.9,0,7.8,0,11.7c0.1,0.9,0.2,1.8,0.6,2.5c0.4,0.7,0.9,1.2,1.8,1.5v0.1c-1.7-0.1-3.3-0.2-4.9-0.2     c-1.6,0-3.2,0.1-5.1,0.2V67.5z M124.6,49.3c1.3,0,2.6,0.2,3.6,0.7c1,0.5,1.9,1.3,2.4,2.4c0.4,0.8,0.6,1.8,0.6,3v6.7     c0,1.3,0.1,2.4,0.4,3.3c0.3,0.9,1,1.6,2.1,2v0.1c-1.5-0.1-3.3-0.1-5-0.1c-1.8,0-3.6,0-5,0.1v-0.1c1.1-0.4,1.7-1.1,2.1-2     c0.4-0.9,0.4-2.1,0.4-3.3l0-6.8c0-2.3-0.6-3.7-1.5-4.6c-0.6-0.6-1.3-0.8-2-1c-0.6-0.1-1.1-0.1-1.7,0     C122.2,49.5,123.5,49.3,124.6,49.3z"></path>			</g>		</g>		<path id="XMLID_37_" class="st2" d="M73,57.1c-0.4,1.9-1.2,3.7-2.4,5.1c-1.1,1.4-2.4,2.4-4,2.9c-1.1,0.4-2.4,0.4-3.9,0.2   c-1.4-0.3-2.7-1-3.6-2.1C58,62,57.3,60.4,57,58.7c-0.3-1.4-0.1-2.8,0.4-4c0.4-1,1.1-1.9,1.9-2.6c0.8-0.7,1.7-1.3,2.8-1.7l0.4-0.1   c-0.3,0.1-0.6,0.3-0.9,0.5c-1,0.6-1.7,1.5-2.2,2.5c-0.4,0.9-0.7,2-0.7,3c0,2.2,0.9,4.3,2.6,5.2c1.4,0.8,3,0.9,4.5,0.5   c1.3-0.3,2.6-1.1,3.7-2c1.1-0.9,2-2.1,2.6-3.5c0.9-1.8,1.3-4,1-6.1C73.6,52.5,73.5,54.9,73,57.1z"></path>		<path id="XMLID_36_" class="st2" d="M70.1,21.8c-1.5,1.5-2.7,3.6-3.4,5.9c-1.8,6.3,2.6,10.1,7.4,14.2c5.3,4.5,11,9.5,8,18.2   c-0.9,2.8-3.4,5-6.9,6.2c-3,1-6.9,1.2-11.3,0.2c1.9,0.1,3.8-0.5,5.5-1.6c2.2-1.6,4-4.1,4.8-6.9c2.1-6.8-2.6-10.8-7.5-14.8   c-5.2-4.3-10.5-8.9-7.3-17c1-2.5,3.1-4.6,5.9-5.7c2.5-1,5.5-1.3,8.8-0.6C72.7,19.9,71.3,20.7,70.1,21.8z"></path>		<path id="XMLID_35_" class="st2" d="M75.8,17.3c2.6,2.5,6.1,9,3.1,13.5c-0.7,1-1.6,1.8-2.8,2.2c-0.5,0.2-1,0.2-1.5,0.2   c-1.5,0-2.8-0.8-3.7-2c-0.9-1.1-1.4-2.7-1.3-4.3c0.1-1.7,0.7-3.2,1.6-4.2c1-1.1,2.3-1.8,3.8-1.7c0.8-1.5-1.1-4.9-2.9-6.1   C73.5,15.4,74.7,16.2,75.8,17.3z"></path>		<path id="XMLID_40_" class="st3" d="M34.8,24c0.7-3,2.9-3.1,3.5-3.6c0.4-0.4,0.5-0.7,0.3-1.1l0.3-0.1c1,0.9,2.4,1.7,4.1,2.4   l-0.1,0.1c-1.8-0.4-4.5-0.3-6.3,0.6C35.7,22.6,35.1,23.5,34.8,24z"></path>		<g id="XMLID_23_">			<g id="XMLID_362_">				<path id="XMLID_371_" class="st3" d="M1.7,38.4c1.1-0.4,1.7-1.1,2.1-2c0.4-0.9,0.4-2,0.4-3.3c0-6.4,0-10.5,0-17.8     c0-0.5-0.3-1.1-0.7-1.6c-0.4-0.4-0.9-0.8-1.6-1.1v-0.2c2.4,0.2,3.6,0.3,4.9,0.3c1.3,0,2.5-0.1,4.8-0.3v0.2     C11,13,10.4,13.4,10,13.8c-0.5,0.5-0.7,1.1-0.7,1.6c0,8.1,0,13.7,0,21.8c0,0.7,0.3,1.1,0.9,1.4c-0.7,0-1.3-0.1-1.9-0.1     c-0.9-0.1-1.8-0.1-2.9-0.1c-0.7,0-1.5,0.1-2.4,0.2c-0.4,0-0.8,0.1-1.2,0.1V38.4z M11.6,13.3c7.1-2.8,12.2,3.8,2.2,7.3     c0.1,0,0.2,0,0.3,0c3.3,0.3,5.9,2.8,7,5.9c0.5,1.3,0.7,2.6,0.7,4c0,1.3-0.4,2.6-1,3.8c-1.3,2.4-4,4.2-8.3,4.4     c1.9-0.7,3.1-2.7,3.7-5.2c0.3-1.3,0.4-2.7,0.4-4.1c0-1.4-0.2-2.8-0.5-4c-0.7-2.6-2.5-5-5.4-4.5C14.4,19.6,20.1,12.4,11.6,13.3z"></path>				<path id="XMLID_368_" class="st3" d="M22.2,21.8c-0.4-0.4-0.9-0.8-1.6-1.1v-0.2c2.3,0.2,3.6,0.3,4.9,0.3c1.3,0,2.5-0.1,4.8-0.3     v0.2c-0.6,0.3-1.2,0.7-1.6,1.1c-0.5,0.5-0.7,1.1-0.7,1.6l0,6.1l0,6.1c0,0.5,0.3,1.1,0.7,1.6c0.4,0.4,0.9,0.8,1.6,1.1v0.2     c-2.3-0.2-3.6-0.3-4.8-0.3c-1.3,0-2.5,0.1-4.9,0.3v-0.2c0.6-0.3,1.2-0.7,1.6-1.1c0.5-0.5,0.7-1.1,0.7-1.6l0-6.1l0-6.1     C23,22.9,22.7,22.3,22.2,21.8z M28.4,16.3c0,0.6-0.3,1.2-0.8,1.6c-0.5,0.4-1.2,0.7-2,0.7c-0.8,0-1.5-0.3-2-0.7     c-0.5-0.4-0.8-1-0.8-1.6c0-0.6,0.3-1.2,0.8-1.6c0.5-0.4,1.2-0.7,2-0.7c0.8,0,1.5,0.3,2,0.7C28.1,15.1,28.4,15.7,28.4,16.3z"></path>				<path id="XMLID_366_" class="st3" d="M35.9,37.7c-1.1-0.6-1.9-1.4-2.4-2.6c-0.3-0.8-0.5-1.7-0.5-2.8l0-11.2h-1.8v-0.6     c1.6-0.1,2.6-1.1,3.7-2.1c0.9-0.9,1.9-1.9,3.3-2l0,4.2h1.7v0.6H38l0,6.3c0,1.9,0,3.7,0,5c0,1.9,0.4,3.2,1.1,4.1     c0.4,0.5,0.9,0.9,1.4,1.2c0.5,0.2,1.1,0.3,1.7,0.3c0.9,0,1.8-0.2,2.5-0.6v0.1c-1.6,0.7-3.4,1-5,1C38.3,38.6,36.9,38.3,35.9,37.7     z"></path>				<path id="XMLID_363_" class="st3" d="M49,20.5c0.4,0,0.7,0,1.1,0.1c-0.3,0-0.6,0.1-0.9,0.3c-1.2,0.5-2,1.8-2.6,3.5     c-0.7,2.1-0.9,4.6-0.7,6.9c0.6,6.3,5,9.4,10.6,5.2c-4.7,4.5-12.7,2.5-15-2.7c-0.5-1.2-0.8-2.5-0.8-3.8c0-1.3,0.3-2.6,0.8-3.9     C42.7,22.9,45.4,20.4,49,20.5z M47.9,31.2c1.8,0.3,3.3,0.3,4.6-1.2c0.7-0.8,1-1.8,1.1-2.9c0.1-1.1-0.1-2.2-0.4-3.3     c-0.4-1.4-1.2-2.5-2.2-3.1c2.3,0.8,4.1,2.2,5.1,3.8c0.5,0.8,0.8,1.6,0.9,2.4c0.1,0.8-0.1,1.5-0.5,2.2     C55.1,31.5,50.8,32.1,47.9,31.2z"></path>			</g>		</g>		<g id="XMLID_42_">			<g id="XMLID_34_">				<g id="XMLID_7_">					<path id="XMLID_38_" class="st2" d="M57.3,41.3c-3.5-1.3-1.7-3.8,0.8-2.7c-3-0.3-1,2.4,0.4,2.8c-1-0.2-1.7,0.7-1.9,1.7      c-0.1,0.5-0.2,1-0.2,1.5c0,0.5,0,1,0.1,1.5c0.2,0.9,0.6,1.7,1.3,2c-1.6-0.1-2.5-0.7-3-1.6c-0.2-0.4-0.3-0.9-0.4-1.4      c0-0.5,0.1-1,0.2-1.5C55.2,42.4,56.1,41.4,57.3,41.3C57.3,41.3,57.3,41.3,57.3,41.3L57.3,41.3z"></path>				</g>				<path id="XMLID_41_" class="st2" d="M57.9,48c0.4,0,1.1-0.5,1.1-0.8c-0.3-0.1-0.4-0.4-0.5-0.7c-0.1-0.3,0-0.6,0.1-1     c0.2-0.3,0.4-0.5,0.7-0.7c0.3-0.1,0.6-0.1,0.8,0c0.1,0.1,0.2,0.1,0.2,0.2c0.2,0.2,0.3,0.4,0.3,0.7c0.1,1.1-1.2,2-1.9,2.2     C58.5,48,58.2,48,57.9,48z"></path>			</g>			<path id="XMLID_28_" class="st2" d="M57,38.2c1.3-0.4,1.9,0.5,2.3,0.6c0.2,0.1,0.4,0,0.5-0.2l0.1,0.1c-0.1,0.6-0.1,1.4,0,2.3    l-0.1,0c-0.3-0.8-0.9-2-1.7-2.5C57.8,38.3,57.3,38.2,57,38.2z"></path>			<path id="XMLID_43_" class="st2" d="M58.4,45.8c0.2-1.5,1.2-1.6,1.4-1.9c0.1-0.2,0.2-0.4,0.1-0.6l0.1-0.1c0.5,0.4,1.2,0.7,2,0.9    l-0.1,0c-0.8-0.1-2.1,0.1-2.9,0.6C58.7,45,58.5,45.5,58.4,45.8z"></path>		</g>	</g>	<g id="XMLID_135_">		<g id="XMLID_207_" class="st4">			<path id="XMLID_133_" class="st5" d="M93.1,45.5c-0.2,0-0.3,0-0.6-0.1c-1.3,0-3.1-0.3-5.2-0.9c-2-0.5-3.8-1.2-4.9-1.8    c-0.2-0.1-0.4-0.1-0.5-0.2c-0.3-0.2-0.6-0.5-1-1c-1.5-2.1-3.2-6.5-2.4-8.9c0.9-3,7.2-14,7.2-14c0.2-0.9,3.9-0.6,8.3,0.5    c2.2,0.6,4.1,1.3,5.5,1.9c0.1,0,0.2,0.1,0.3,0.1c1.2,0.6,1.9,1.2,1.8,1.6l0,0c0,0,0.1,12.7-0.5,15.7    C100.3,41.6,94.9,45.6,93.1,45.5z"></path>			<path id="XMLID_132_" class="st6" d="M91.4,44.2c-0.2,0-0.3,0-0.6-0.1c-1.3,0-3.1-0.3-5.2-0.9c-1.9-0.5-3.6-1.1-4.7-1.7    c-1.5-2.1-3.2-6.5-2.4-8.9c0.9-3,7.2-14,7.2-14c0.2-0.9,3.9-0.6,8.3,0.5c2.2,0.6,4.1,1.3,5.5,1.9c0.1,0,0.2,0.1,0.3,0.1    c0,0.1,0,0.2,0,0.2l0,0c0,0,0.1,12.7-0.5,15.7C98.6,40.3,93.1,44.3,91.4,44.2z"></path>			<path id="XMLID_210_" class="st5" d="M87.4,44.8c-1.8-0.5-3.4-1-4.6-1.6c-1.3-0.6-1.9-1.2-1.8-1.6c0.1-0.5,0.9-0.6,2.3-0.5    c1.3,0.1,3,0.4,4.8,0.8c1.8,0.5,3.4,1,4.6,1.6c1.3,0.6,1.9,1.2,1.8,1.6c-0.1,0.5-0.9,0.6-2.3,0.5C90.8,45.5,89.1,45.2,87.4,44.8z     M88,42.2c-1.7-0.5-3.4-0.8-4.7-0.8c-1.5-0.1-1.9,0.1-2,0.3c0,0.1,0.3,0.5,1.6,1.2c1.2,0.6,2.8,1.1,4.5,1.6    c1.7,0.5,3.4,0.8,4.7,0.8c1.5,0.1,1.9-0.1,2-0.3c0-0.1-0.3-0.5-1.6-1.2C91.4,43.2,89.8,42.7,88,42.2z"></path>			<path id="XMLID_129_" class="st5" d="M79,32.6c0,0.1,0,0.2,0,0.3l0,0.3c0,0.2,0,0.4,0,0.6c0,0.4,0.1,0.8,0.1,1.2    c0.1,0.8,0.3,1.6,0.6,2.3c0.1,0.4,0.3,0.8,0.4,1.1c0.2,0.4,0.3,0.7,0.5,1.1c0,0.1,0.1,0.2,0.1,0.3c0,0.1,0.1,0.2,0.1,0.3    c0,0,0,0.1,0.1,0.1c0,0,0,0.1,0.1,0.1c0,0.1,0.1,0.2,0.1,0.3c0.1,0.2,0.2,0.4,0.3,0.6c0.1,0.2,0.2,0.4,0.2,0.6l0,0    c0,0.1,0,0.3-0.2,0.3c-0.1,0-0.2,0-0.2,0c-0.2-0.1-0.4-0.3-0.5-0.4c-0.2-0.2-0.3-0.3-0.5-0.5c-0.1-0.2-0.3-0.3-0.4-0.5    c-0.1-0.1-0.1-0.2-0.2-0.3c-0.1-0.1-0.1-0.2-0.2-0.3c-0.2-0.4-0.4-0.8-0.6-1.2c-0.1-0.2-0.2-0.4-0.2-0.6    c-0.1-0.2-0.1-0.4-0.2-0.6c-0.2-0.9-0.4-1.7-0.4-2.6c0-0.4,0-0.9,0.1-1.3c0-0.2,0.1-0.4,0.1-0.6c0-0.1,0.1-0.2,0.1-0.3    c0-0.1,0.1-0.2,0.1-0.3c0.1-0.1,0.2-0.2,0.3-0.1C78.9,32.4,79,32.5,79,32.6L79,32.6z"></path>			<path id="XMLID_128_" class="st6" d="M102,24.1c-0.2,0.9-4.3,0.7-9-0.6c-4.7-1.2-8.4-3-8.2-3.9c0,0,0,0,0,0l0,0    c0.2-0.7,0.9-1,1.3-1.1c-0.3,0.1-0.4,0.2-0.4,0.4c-0.2,0.9,3.1,2.5,7.5,3.6c4.4,1.2,8.1,1.4,8.3,0.5c0-0.1,0-0.3-0.2-0.5    C101.7,22.8,102.1,23.3,102,24.1C102,24,102,24,102,24.1z"></path>		</g>		<g id="XMLID_202_">							<image style="overflow:visible;" width="85" height="95" id="XMLID_127_" transform="matrix(0.24 0 0 0.24 79.9406 21.1716)">			</image>			<path id="XMLID_126_" class="st3" d="M96.9,25.2c0,0-0.5,11.4-1.3,13c-0.9,1.6-3,4.4-4.6,4.1c-1.7-0.3-6.5-1.7-7.5-2.6    c-1-0.9-2.7-5.1-1.9-7.7c0.8-2.6,5.2-9.8,5.2-9.8L96.9,25.2z"></path>			<path id="XMLID_125_" class="st3" d="M100.2,25.4C100.2,25.4,100.2,25.4,100.2,25.4c-0.3,0.8-3.6,0.6-7.6-0.5c-4-1-7-2.5-6.9-3.3    c0,0,0,0,0,0c0-0.1,0-0.1,0.1-0.2c0.6-0.6,3.8-0.3,7.5,0.6c3.7,1,6.6,2.3,6.9,3.1C100.2,25.3,100.2,25.4,100.2,25.4z"></path>			<path id="XMLID_124_" class="st3" d="M95.9,41.9c0,0-0.1,0-0.1-0.1c-0.1-0.1-0.1-0.2,0-0.3c2.2-1.8,2.7-2.5,3.1-3.7    c0.5-1.6,0.5-7.7,0.5-7.8c0-0.1,0.1-0.2,0.2-0.2c0.1,0,0.2,0.1,0.2,0.2c0,0.3,0,6.2-0.5,7.9c-0.4,1.4-1.1,2.2-3.2,3.9    C96.1,41.9,96,41.9,95.9,41.9z"></path>		</g>		<path id="XMLID_123_" class="st7" d="M88.7,30.8c-1.1,0.8-2,5.2-1.3,6c0.7,0.9,4.3,1.9,4.9,1.7c0.6-0.2,2.5-4.7,2.2-5.5   C94.1,32.2,89.3,30.4,88.7,30.8z"></path>		<g id="XMLID_186_">							<ellipse id="XMLID_122_" transform="matrix(0.9979 -6.477837e-002 6.477837e-002 0.9979 -2.0319 5.6316)" class="st1" cx="85.8" cy="34.1" rx="4.6" ry="5.5"></ellipse>							<ellipse id="XMLID_115_" transform="matrix(0.9979 -6.477828e-002 6.477828e-002 0.9979 -2.039 5.5912)" class="st8" cx="85.2" cy="34.2" rx="4.6" ry="5.5"></ellipse>			<g id="XMLID_190_">				<path id="XMLID_114_" class="st1" d="M87.4,30.8l-1.6,2.2c-0.1,0.2-0.4,0.1-0.4-0.2l-0.2-3c0-0.2,0.1-0.3,0.3-0.3     c0.7,0.1,1.4,0.3,2,0.8C87.4,30.5,87.5,30.7,87.4,30.8z"></path>				<path id="XMLID_113_" class="st1" d="M88.8,33.7l-2.6,0.2c-0.2,0-0.4-0.3-0.2-0.5l1.7-2.3c0.1-0.1,0.3-0.1,0.4,0     c0.5,0.6,0.8,1.4,1,2.3C89,33.6,88.9,33.7,88.8,33.7z"></path>				<path id="XMLID_112_" class="st1" d="M89.1,34.5c0,0.9-0.3,1.7-0.7,2.4c-0.1,0.1-0.3,0.2-0.4,0l-2-2.1c-0.2-0.2-0.1-0.5,0.1-0.5     l2.6-0.2C89,34.2,89.1,34.3,89.1,34.5z"></path>				<path id="XMLID_105_" class="st1" d="M87.8,37.8c-0.5,0.6-1.2,0.9-1.9,1.1c-0.1,0-0.3-0.1-0.3-0.3l-0.2-3.1     c0-0.3,0.2-0.4,0.4-0.2l2,2.1C88,37.4,88,37.6,87.8,37.8z"></path>				<path id="XMLID_104_" class="st1" d="M85.1,35.4l0.2,3.2c0,0.2-0.1,0.3-0.3,0.3c-0.8-0.1-1.5-0.4-2-0.9c-0.1-0.1-0.1-0.3,0-0.4     l1.7-2.3C84.8,35.1,85.1,35.2,85.1,35.4z"></path>				<path id="XMLID_103_" class="st1" d="M84.3,35l-1.7,2.3c-0.1,0.1-0.3,0.1-0.4,0c-0.5-0.6-0.8-1.4-0.9-2.3c0-0.2,0.1-0.3,0.2-0.3     l2.5-0.2C84.3,34.5,84.5,34.8,84.3,35z"></path>				<path id="XMLID_102_" class="st1" d="M84.1,34l-2.5,0.2c-0.1,0-0.3-0.1-0.3-0.3c0-0.9,0.3-1.7,0.7-2.4c0.1-0.1,0.3-0.2,0.4,0     l1.9,2C84.4,33.7,84.3,34,84.1,34z"></path>				<path id="XMLID_98_" class="st1" d="M84.7,29.9l0.2,3.1c0,0.3-0.2,0.4-0.4,0.2l-1.9-2.1c-0.1-0.1-0.1-0.3,0-0.4     c0.5-0.6,1.2-0.9,1.9-1.1C84.6,29.6,84.7,29.7,84.7,29.9z"></path>			</g>			<path id="XMLID_94_" class="st7" d="M84.3,32.1c0.4-0.2,0.6,0.9,0.4,0.9C84.4,33,84.1,32.2,84.3,32.1z"></path>			<path id="XMLID_93_" class="st7" d="M87.3,34.8c0,0.5-1.1,0-0.9-0.2C86.5,34.4,87.3,34.5,87.3,34.8z"></path>			<path id="XMLID_92_" class="st7" d="M87.1,33.5c0.1,0.4-1,0.4-0.9,0.2C86.2,33.4,87,33.2,87.1,33.5z"></path>		</g>		<g id="XMLID_171_">			<path id="XMLID_91_" class="st2" d="M87.8,23.6C87.7,23.6,87.7,23.6,87.8,23.6c-0.2-0.1-0.2-0.2-0.1-0.3c0,0,0.6-0.6,1.3-1.7    c0.6-0.9,1.3-2.4,1.5-4.1c0.3-3.3-2.7-7.7-2.7-7.7c-0.1-0.1,0-0.2,0-0.3c0.1-0.1,0.2,0,0.3,0c0,0,0.8,1.1,1.5,2.7    c1,2.1,1.4,3.8,1.3,5.3c-0.1,1.8-0.9,3.3-1.5,4.3c-0.7,1.1-1.3,1.7-1.3,1.7C87.9,23.6,87.8,23.7,87.8,23.6z"></path>			<path id="XMLID_90_" class="st2" d="M85.5,14.7c-0.8,0.7,2.3,1.5,2.7,3c0.4,1.4,0.5,4.5,0.5,4.5s1.1-2,0.3-4.3    S85.9,14.4,85.5,14.7z"></path>			<path id="XMLID_89_" class="st2" d="M91.4,10.8c1-0.4,0.5,2.3,0.1,3.5c-0.4,1.2-0.8,3-0.8,3s-0.5-1-0.3-3.2S91.2,10.9,91.4,10.8z    "></path>			<path id="XMLID_88_" class="st2" d="M93,14.1c0.7,0.5-2.5,4.5-2.5,4.5s0.6-2.6,1.2-3.6C92.3,13.9,92.5,13.7,93,14.1z"></path>			<path id="XMLID_87_" class="st2" d="M86.5,11.1c-0.4,0.4,1.5,1.8,2.2,2.6c0.7,0.8,1.7,1.5,1.7,1.5s-0.9-1.6-1.3-2.3    C88.6,12.3,86.7,10.9,86.5,11.1z"></path>			<path id="XMLID_86_" class="st2" d="M89.1,11.7c0,0-0.6-1.8-0.6-2.6c0.1-0.9,0.4-1.6,0.6-1.5c0.2,0,0.3,1.1,0.3,1.8    c0,0.7,0.3,1.3,0.3,1.9c0,0.7-0.2,1.4-0.2,1.4L89.1,11.7z"></path>			<path id="XMLID_85_" class="st2" d="M89,15.4c0.2-0.1,0.9,1.2,1,1.9c0.2,0.7,0.2,2.3,0.2,2.3s-0.5-1.1-0.7-1.7S88.8,15.5,89,15.4    z"></path>			<path id="XMLID_84_" class="st2" d="M92.5,19.4c0.5,0.5-1.5,2.6-2.2,3c-0.8,0.4-0.7,0.6-1,0.3c-0.2-0.3,2.6-3.8,3-3.6    C92.7,19.3,92.5,19.4,92.5,19.4z"></path>			<path id="XMLID_83_" class="st9" d="M90.5,15.7c0,0-0.1-0.1-0.1-0.1c0-0.3,0.1-0.7,0.1-1c0-0.3,0-0.6,0.1-0.9    c0.1-0.8,0.3-1.4,0.7-1.8c0,0,0.1,0,0.1,0c0,0,0,0.1,0,0.1c-0.3,0.4-0.6,1-0.7,1.7c0,0.3-0.1,0.6-0.1,0.9c0,0.3,0,0.7-0.1,1    C90.7,15.7,90.6,15.8,90.5,15.7C90.6,15.7,90.6,15.7,90.5,15.7z"></path>			<path id="XMLID_82_" class="st9" d="M89.2,11.8C89.2,11.8,89.1,11.8,89.2,11.8c-0.3-1.1-0.5-2.2-0.4-3.3c0,0,0-0.1,0.1-0.1    c0,0,0.1,0,0.1,0.1c-0.1,1.1,0.1,2.1,0.3,3.1C89.3,11.8,89.3,11.8,89.2,11.8C89.2,11.8,89.2,11.8,89.2,11.8z"></path>			<path id="XMLID_81_" class="st9" d="M90.1,15C90.1,15,90.1,15,90.1,15c-0.2-0.1-0.3-0.2-0.5-0.3c-0.2-0.2-0.3-0.5-0.5-0.7    c0-0.1-0.1-0.1-0.1-0.2c-0.1-0.2-0.3-0.5-0.5-0.7c-0.2-0.3-0.5-0.6-0.8-0.8c0,0,0-0.1,0-0.1c0,0,0.1,0,0.1,0    c0.3,0.2,0.6,0.5,0.9,0.8c0.2,0.2,0.3,0.5,0.5,0.7c0,0.1,0.1,0.1,0.1,0.2c0.1,0.2,0.3,0.5,0.4,0.7c0.1,0.1,0.3,0.2,0.4,0.3    c0,0,0.1,0.1,0.1,0.1C90.2,15,90.2,15,90.1,15z"></path>			<path id="XMLID_80_" class="st9" d="M88.9,19.5c0,0-0.1-0.1-0.1-0.1c0.1-0.6,0-1.2-0.3-1.7c-0.3-0.5-0.7-1-1.2-1.3    c0,0-0.1-0.1,0-0.1c0,0,0.1-0.1,0.1,0c0.5,0.4,1,0.9,1.2,1.4c0.3,0.6,0.4,1.2,0.3,1.8C89,19.5,88.9,19.5,88.9,19.5    C88.9,19.5,88.9,19.5,88.9,19.5z"></path>			<path id="XMLID_79_" class="st9" d="M90.6,18.3C90.6,18.3,90.6,18.2,90.6,18.3c-0.1-0.4,0.1-0.7,0.2-0.9c0-0.1,0.1-0.1,0.1-0.2    c0.1-0.2,0.2-0.5,0.3-0.7c0.1-0.3,0.2-0.6,0.3-0.8c0,0,0.1-0.1,0.1,0c0,0,0.1,0.1,0,0.1c-0.1,0.3-0.2,0.5-0.3,0.8    c-0.1,0.2-0.2,0.5-0.3,0.7c0,0.1-0.1,0.2-0.1,0.2c-0.1,0.3-0.3,0.5-0.3,0.8C90.8,18.3,90.7,18.3,90.6,18.3    C90.7,18.3,90.6,18.3,90.6,18.3z"></path>			<path id="XMLID_78_" class="st9" d="M90.2,21.8C90.2,21.8,90.2,21.7,90.2,21.8c-0.1-0.1-0.1-0.1,0-0.2c0.5-0.4,1-0.9,1.3-1.4    c0,0,0.1-0.1,0.1,0c0,0,0.1,0.1,0,0.1C91.3,20.9,90.8,21.4,90.2,21.8C90.3,21.8,90.2,21.8,90.2,21.8z"></path>		</g>		<g id="XMLID_168_">			<polygon id="XMLID_77_" class="st1" points="105,15.6 98.7,25.5 87.6,42.8 86.6,42.2 97.5,25.1 104,15    "></polygon>			<path id="XMLID_76_" class="st10" d="M98.7,25.5L87.6,42.8l-1-0.6l10.9-17.1C97.7,25.2,98.2,25.6,98.7,25.5z"></path>		</g>		<g id="XMLID_165_">			<path id="XMLID_75_" class="st1" d="M101.9,11.3l-4.9,14c-0.5,0.1-0.9-0.1-1.1-0.2l4.9-14.1L101.9,11.3z"></path>			<path id="XMLID_74_" class="st1" d="M97,25.3l-5.8,16.5l-1.1-0.4L95.9,25C96.1,25.2,96.5,25.4,97,25.3z"></path>		</g>		<g id="XMLID_155_">			<path id="XMLID_72_" class="st7" d="M89.8,39.8c-0.2,1.1,3.9,3.2,4.3,3.2c0.4,0,3.6-3.2,3.6-3.6c0-0.4-3.5-3.4-3.8-3.5    C93.6,35.9,90,39.2,89.8,39.8z"></path>			<path id="XMLID_65_" class="st7" d="M84.2,37.2c-0.2,1.3,2.4,5,3.6,5c1.1,0.1,4.3-1.8,4.6-2.4c0.3-0.6-1.8-5-2.6-5.3    C88.9,34.1,84.3,36.4,84.2,37.2z"></path>			<path id="XMLID_64_" class="st7" d="M93.2,35.3c1.2,0.5,5.4-1.1,5.8-2.2c0.3-1.1-0.7-4.6-1.2-5.1c-0.5-0.4-5.3,0.4-5.8,1.1    C91.5,29.9,92.5,35.1,93.2,35.3z"></path>		</g>		<g id="XMLID_149_">			<circle id="XMLID_62_" class="st11" cx="87.5" cy="25.1" r="0.6"></circle>			<circle id="XMLID_61_" class="st11" cx="89.8" cy="27.7" r="0.4"></circle>			<circle id="XMLID_60_" class="st11" cx="91.7" cy="31.1" r="0.4"></circle>			<circle id="XMLID_59_" class="st11" cx="84.1" cy="28.5" r="0.4"></circle>			<circle id="XMLID_58_" class="st11" cx="89.6" cy="29.4" r="0.7"></circle>		</g>		<g id="XMLID_142_">			<path id="XMLID_57_" class="st12" d="M94,9.1c0.1,0.2,0.2,0.5,0.3,0.7c0.1,0.2,0.2,0.5,0.2,0.7c0.1,0.5,0.2,1,0.3,1.5    c0,0.5,0,1,0,1.5c0,0.1,0,0.3-0.1,0.4c0,0.1,0,0.1,0,0.2c0,0.1,0,0.1-0.1,0.2c-0.1,0.3-0.2,0.5-0.3,0.7c-0.1,0.1-0.2,0.1-0.3,0.1    c-0.1,0-0.1-0.1-0.1-0.2l0,0c0-0.1,0-0.3,0-0.4c0-0.1,0-0.1,0-0.2c0-0.1,0-0.1,0-0.2c0-0.1,0-0.2,0-0.4c0-0.1,0-0.2,0-0.4    c0-0.5-0.1-0.9-0.1-1.4c0-0.5-0.1-1-0.1-1.4c0-0.5,0-1,0-1.5l0,0c0-0.1,0.1-0.2,0.2-0.2C93.9,9,93.9,9,94,9.1z"></path>			<path id="XMLID_56_" class="st12" d="M97.6,8.4c0,0.2,0,0.4,0,0.7c0,0.2-0.1,0.4-0.1,0.6c-0.1,0.4-0.2,0.8-0.3,1.2    c-0.1,0.2-0.1,0.4-0.2,0.6c-0.1,0.2-0.2,0.4-0.3,0.6c0,0.1-0.1,0.2-0.2,0.3c-0.1,0.1-0.1,0.2-0.2,0.3c-0.1,0.1-0.1,0.2-0.2,0.3    C96,12.9,96,12.9,95.9,13l0,0c0,0-0.1,0-0.1,0c0,0,0,0,0,0c0-0.1-0.1-0.2-0.1-0.3c0-0.1,0-0.2,0-0.3c0-0.2,0-0.4,0.1-0.7    c0.1-0.4,0.2-0.8,0.4-1.2c0.2-0.4,0.4-0.8,0.6-1.1C96.8,9.2,96.9,9,97,8.8c0.1-0.2,0.3-0.3,0.4-0.5C97.5,8.3,97.5,8.3,97.6,8.4    C97.6,8.4,97.6,8.4,97.6,8.4z"></path>			<path id="XMLID_53_" class="st12" d="M99.1,11.6c-0.3,0.6-0.6,1.1-0.9,1.7c-0.3,0.5-0.6,1.1-1,1.6l-1,1.6c-0.3,0.5-0.6,1.1-1,1.6    l0,0c0,0,0,0-0.1,0c0,0,0,0,0,0c0.1-0.6,0.2-1.3,0.5-1.9c0.2-0.6,0.5-1.2,0.9-1.7c0.3-0.5,0.7-1.1,1.1-1.5    c0.2-0.2,0.4-0.5,0.6-0.7C98.5,12,98.7,11.8,99.1,11.6C99,11.6,99,11.6,99.1,11.6C99.1,11.6,99.1,11.6,99.1,11.6L99.1,11.6z"></path>			<circle id="XMLID_50_" class="st12" cx="92.5" cy="5.3" r="0.6"></circle>			<circle id="XMLID_49_" class="st12" cx="95.5" cy="5.3" r="0.6"></circle>			<circle id="XMLID_48_" class="st12" cx="94.9" cy="2.4" r="0.9"></circle>		</g>		<g id="XMLID_136_">			<path id="XMLID_47_" class="st7" d="M102,24.1c-0.2,0.9-4.3,0.7-9-0.6c-4.7-1.2-8.4-3-8.2-3.9c0,0,0,0,0,0l0,0    c0.2-0.7,0.9-1,1.3-1.1c-0.3,0.1-0.4,0.2-0.4,0.4c-0.2,0.9,3.1,2.5,7.5,3.6c4.4,1.2,8.1,1.4,8.3,0.5c0-0.1,0-0.3-0.2-0.5    C101.7,22.8,102.1,23.3,102,24.1C102,24,102,24,102,24.1z"></path>			<path id="XMLID_46_" class="st13" d="M87.6,21.8L85,27.5c-0.2,0.4,0,0.8,0.4,1l0,0c0.3,0.1,0.7,0,0.9-0.3l3-5.4L87.6,21.8z"></path>			<path id="XMLID_45_" class="st13" d="M82.7,34.4c-0.1,1-0.1,2.7,0.4,3.9c0.1,0.2,0.2,0.3,0.4,0.4l0.5,0.1    c0.4,0.1,0.8-0.2,0.8-0.6c0-0.9,0-2.3,0.2-3.3c0-0.3-0.1-0.6-0.4-0.7l-1-0.4C83.1,33.7,82.7,34,82.7,34.4z"></path>			<path id="XMLID_44_" class="st13" d="M102.4,24c0,0.2-0.1,0.3-0.2,0.4c-0.1,0.1-0.2,0.2-0.3,0.2c-0.2,0.1-0.4,0.2-0.6,0.2    c-0.2,0-0.4,0.1-0.6,0.1c-0.2,0-0.4,0-0.6,0c-0.8,0-1.6,0-2.4-0.1c-0.8-0.1-1.6-0.2-2.4-0.4c-0.8-0.2-1.6-0.4-2.4-0.6    c-1.6-0.4-3.1-0.9-4.6-1.5c-0.7-0.3-1.5-0.7-2.2-1.1c-0.4-0.2-0.7-0.4-1-0.7c-0.2-0.1-0.3-0.3-0.5-0.5c-0.1-0.1-0.1-0.2-0.2-0.3    c0-0.1,0-0.1-0.1-0.2c0-0.1,0-0.2,0-0.2l0,0l0.2,0.2l0,0c-0.1,0-0.2-0.1-0.2-0.2s0.1-0.2,0.2-0.2l0,0c0.1,0,0.2,0.1,0.2,0.2    c0,0,0,0,0,0l0,0l0,0c0,0,0,0.1,0,0.2c0,0.1,0.1,0.1,0.1,0.2c0.1,0.1,0.3,0.2,0.4,0.4c0.3,0.2,0.7,0.4,1,0.6    c0.3,0.2,0.7,0.3,1.1,0.5c0.4,0.2,0.7,0.3,1.1,0.4c1.5,0.5,3,1,4.6,1.4c0.8,0.2,1.5,0.4,2.3,0.5c0.8,0.2,1.6,0.3,2.3,0.4    c0.8,0.1,1.6,0.2,2.3,0.3c0.4,0,0.8,0,1.1,0c0.2,0,0.4,0,0.5-0.1c0.1,0,0.1-0.1,0.2-0.1c0,0,0,0,0.1-0.1c0,0,0,0,0-0.1l0,0    c0-0.1,0.1-0.2,0.2-0.2C102.4,23.9,102.4,24,102.4,24z"></path>			<path id="XMLID_6_" class="st13" d="M93.2,22.3c0.7,0.1,1.5,0.2,2.2,0.3c0.7,0.1,1.4,0.2,2.2,0.3c0.7,0.1,1.4,0.1,2.2,0.2    c0.4,0,0.7,0,1.1,0c0.2,0,0.3,0,0.5-0.1c0.1,0,0.1,0,0.2-0.1c0,0,0,0,0.1,0c0,0,0,0,0,0l0,0c0.1-0.1,0.2-0.1,0.3,0    c0.1,0,0.1,0.1,0.1,0.2c0,0.1,0,0.1-0.1,0.2c0,0.1-0.1,0.1-0.1,0.2c-0.1,0.1-0.2,0.1-0.3,0.2c-0.2,0.1-0.4,0.1-0.6,0.2    c-0.4,0.1-0.8,0.1-1.2,0.1c-0.8,0-1.5-0.1-2.2-0.2c-0.7-0.1-1.5-0.3-2.2-0.5c-0.7-0.2-1.4-0.4-2.1-0.7    C93.1,22.4,93.1,22.4,93.2,22.3C93.1,22.3,93.2,22.3,93.2,22.3z"></path>		</g>	</g></g></svg>