<svg xmlns="http://www.w3.org/2000/svg" xmlns:xlink="http://www.w3.org/1999/xlink" id="Layer_1" x="0px" y="0px" viewBox="0 0 109.3 75" style="enable-background:new 0 0 109.3 75;" xml:space="preserve">  <style type="text/css">	.st0{fill:#FF6700;}	.st1{opacity:0.5;fill:#FFFFFF;}	.st2{fill:#FAB915;}	.st3{fill:#E89044;}	.st4{fill:#417B5A;}	.st5{fill:#88A664;}	.st6{opacity:0.5;fill:#FAB915;}	.st7{fill:#A2665D;}	.st8{fill:#A8BACC;}	.st9{fill:#FFFFFF;}</style>  <g id="XMLID_404_">	<g id="XMLID_501_">					<image style="overflow:visible;" width="150" height="167" id="XMLID_505_" transform="matrix(0.24 0 0 0.24 64.9907 34.8278)">		</image>		<path id="XMLID_504_" class="st0" d="M95,42c0,0-0.8,20.2-2.4,23c-1.5,2.7-5.3,7.9-8.2,7.3c-2.9-0.6-11.4-3-13.2-4.6   c-1.8-1.6-4.7-8.9-3.3-13.6c1.4-4.7,9.3-17.4,9.3-17.4L95,42z"></path>		<path id="XMLID_503_" class="st0" d="M100.8,42.4C100.8,42.4,100.8,42.4,100.8,42.4c-0.4,1.4-6.4,1-13.5-0.9   c-7-1.8-12.4-4.4-12.2-5.8c0,0,0,0,0,0c0-0.1,0.1-0.2,0.2-0.3c1.1-1,6.8-0.6,13.3,1.1c6.6,1.7,11.7,4.1,12.2,5.5   C100.9,42.2,100.9,42.3,100.8,42.4z"></path>		<path id="XMLID_502_" class="st0" d="M93.3,71.5c-0.1,0-0.2-0.1-0.2-0.1C93,71.2,93,71,93.2,70.8c3.9-3.1,4.8-4.4,5.4-6.6   c0.8-2.9,0.8-13.7,0.8-13.8c0-0.2,0.2-0.4,0.4-0.4c0.2,0,0.4,0.2,0.4,0.4c0,0.4,0,11-0.9,14c-0.7,2.5-1.9,3.9-5.7,7   C93.6,71.5,93.5,71.6,93.3,71.5z"></path>	</g>	<path id="XMLID_500_" class="st1" d="M80.4,51.9c-1.9,1.4-3.5,9.1-2.2,10.7c1.3,1.5,7.6,3.4,8.7,3.1s4.4-8.3,3.8-9.8  C90.1,54.4,81.5,51.1,80.4,51.9z"></path>	<g id="XMLID_485_">					<ellipse id="XMLID_499_" transform="matrix(0.9979 -6.477837e-002 6.477837e-002 0.9979 -3.5866 5.007)" class="st2" cx="75.4" cy="57.8" rx="8.1" ry="9.7"></ellipse>					<ellipse id="XMLID_498_" transform="matrix(0.9979 -6.477828e-002 6.477828e-002 0.9979 -3.5992 4.9353)" class="st3" cx="74.3" cy="58" rx="8.1" ry="9.7"></ellipse>		<g id="XMLID_489_">			<path id="XMLID_497_" class="st2" d="M78.1,51.9l-2.9,4c-0.3,0.3-0.7,0.1-0.8-0.3l-0.3-5.3c0-0.3,0.2-0.6,0.4-0.6    c1.3,0.1,2.5,0.6,3.5,1.4C78.3,51.3,78.3,51.7,78.1,51.9z"></path>			<path id="XMLID_496_" class="st2" d="M80.7,57.1l-4.6,0.3c-0.4,0-0.6-0.5-0.4-0.9l3-4.1c0.2-0.2,0.5-0.2,0.6,0    c0.9,1.1,1.5,2.5,1.7,4.1C81.1,56.8,80.9,57.1,80.7,57.1z"></path>			<path id="XMLID_495_" class="st2" d="M81.2,58.4c0,1.6-0.5,3-1.2,4.3c-0.1,0.3-0.4,0.3-0.6,0.1l-3.5-3.7    c-0.3-0.3-0.1-0.9,0.3-0.9l4.6-0.3C81,57.9,81.2,58.1,81.2,58.4z"></path>			<path id="XMLID_494_" class="st2" d="M79,64.2c-0.9,1-2.1,1.7-3.3,2c-0.3,0.1-0.5-0.2-0.5-0.5l-0.4-5.5c0-0.5,0.4-0.7,0.7-0.4    l3.5,3.7C79.2,63.6,79.2,64,79,64.2z"></path>			<path id="XMLID_493_" class="st2" d="M74.1,60.1l0.4,5.6c0,0.3-0.2,0.6-0.5,0.6c-1.3-0.1-2.6-0.7-3.6-1.6    c-0.2-0.2-0.2-0.5-0.1-0.8l3-4.2C73.6,59.4,74.1,59.6,74.1,60.1z"></path>			<path id="XMLID_492_" class="st2" d="M72.8,59.3l-2.9,4c-0.2,0.2-0.5,0.2-0.7,0c-0.8-1.1-1.4-2.5-1.6-4c0-0.3,0.1-0.6,0.4-0.6    l4.5-0.3C72.8,58.4,73,59,72.8,59.3z"></path>			<path id="XMLID_491_" class="st2" d="M72.4,57.6l-4.5,0.3c-0.3,0-0.5-0.2-0.5-0.6c0.1-1.5,0.5-3,1.2-4.2c0.1-0.3,0.4-0.3,0.6-0.1    l3.4,3.6C72.9,57,72.8,57.6,72.4,57.6z"></path>			<path id="XMLID_490_" class="st2" d="M73.5,50.3l0.4,5.4c0,0.5-0.4,0.7-0.7,0.4l-3.4-3.6c-0.2-0.2-0.2-0.6,0-0.8    c0.9-1,2-1.7,3.3-1.9C73.2,49.7,73.5,50,73.5,50.3z"></path>		</g>		<path id="XMLID_488_" class="st1" d="M72.7,54.2c0.7-0.4,1.1,1.6,0.6,1.6C72.9,55.7,72.3,54.4,72.7,54.2z"></path>		<path id="XMLID_487_" class="st1" d="M77.9,59c-0.1,0.8-1.9,0-1.7-0.4C76.5,58.3,78,58.5,77.9,59z"></path>		<path id="XMLID_486_" class="st1" d="M77.7,56.7c0.3,0.8-1.8,0.7-1.7,0.3C76.1,56.5,77.5,56.2,77.7,56.7z"></path>	</g>	<g id="XMLID_470_">		<path id="XMLID_484_" class="st4" d="M78.9,39.2c-0.1,0-0.1,0-0.1-0.1c-0.1-0.1-0.1-0.3,0-0.5c0,0,1.1-1.1,2.3-3   c1.1-1.7,2.4-4.3,2.6-7.3c0.5-5.8-4.8-13.6-4.8-13.6c-0.1-0.1-0.1-0.3,0.1-0.4c0.1-0.1,0.3-0.1,0.4,0.1c0,0,1.4,2,2.6,4.7   c1.7,3.7,2.5,6.8,2.3,9.3c-0.3,3.2-1.6,5.9-2.7,7.6c-1.2,1.9-2.3,3-2.3,3.1C79.1,39.2,79,39.2,78.9,39.2z"></path>		<path id="XMLID_483_" class="st4" d="M74.8,23.3c-1.4,1.2,4,2.7,4.8,5.2s1,8,1,8s1.9-3.6,0.6-7.7S75.5,22.8,74.8,23.3z"></path>		<path id="XMLID_482_" class="st4" d="M85.2,16.5c1.8-0.8,0.8,4.1,0.2,6.2c-0.6,2.1-1.5,5.3-1.5,5.3s-0.9-1.8-0.5-5.6   C83.9,18.5,84.8,16.6,85.2,16.5z"></path>		<path id="XMLID_481_" class="st4" d="M88.1,22.2c1.2,1-4.4,7.9-4.4,7.9s1.1-4.6,2.2-6.4C86.9,21.9,87.2,21.6,88.1,22.2z"></path>		<path id="XMLID_480_" class="st4" d="M76.6,17c-0.6,0.7,2.6,3.1,3.8,4.6c1.2,1.5,3,2.7,3,2.7s-1.5-2.9-2.3-4.1   C80.4,19.1,76.9,16.7,76.6,17z"></path>		<path id="XMLID_479_" class="st4" d="M81.2,18c0,0-1.1-3.1-1-4.7c0.1-1.5,0.7-2.7,1.1-2.7c0.4,0,0.5,2,0.5,3.2   c0,1.2,0.5,2.2,0.5,3.4c0,1.2-0.3,2.5-0.3,2.5L81.2,18z"></path>		<path id="XMLID_478_" class="st4" d="M81,24.6c0.4-0.2,1.6,2.1,1.9,3.3c0.3,1.2,0.3,4.2,0.3,4.2s-0.9-2-1.2-3S80.8,24.7,81,24.6z"></path>		<path id="XMLID_477_" class="st4" d="M87.2,31.7c0.9,0.9-2.6,4.7-3.9,5.4c-1.3,0.7-1.3,1-1.7,0.5c-0.4-0.5,4.6-6.7,5.2-6.4   C87.5,31.4,87.2,31.7,87.2,31.7z"></path>		<path id="XMLID_476_" class="st5" d="M83.8,25.2c-0.1,0-0.1-0.1-0.1-0.2c0.1-0.6,0.1-1.2,0.2-1.8c0-0.5,0.1-1.1,0.1-1.7   c0.2-1.4,0.6-2.5,1.2-3.2c0.1-0.1,0.2-0.1,0.2,0c0.1,0.1,0.1,0.2,0,0.2c-0.6,0.7-1,1.8-1.2,3.1c-0.1,0.5-0.1,1.1-0.1,1.6   c0,0.6-0.1,1.2-0.2,1.8C84,25.2,83.9,25.2,83.8,25.2C83.8,25.2,83.8,25.2,83.8,25.2z"></path>		<path id="XMLID_475_" class="st5" d="M81.4,18.2c-0.1,0-0.1-0.1-0.1-0.1c-0.3-1.8-0.7-3.7-0.5-5.6c0-0.1,0.1-0.2,0.2-0.1   c0.1,0,0.2,0.1,0.1,0.2c-0.2,1.9,0.2,3.7,0.5,5.6C81.6,18.1,81.6,18.2,81.4,18.2C81.4,18.3,81.4,18.3,81.4,18.2z"></path>		<path id="XMLID_474_" class="st5" d="M83,23.9C83,23.9,83,23.9,83,23.9c-0.3-0.1-0.6-0.3-0.9-0.5c-0.4-0.4-0.6-0.8-0.9-1.2   c-0.1-0.1-0.1-0.2-0.2-0.4c-0.2-0.4-0.5-0.8-0.8-1.2c-0.4-0.5-0.9-1-1.5-1.4c-0.1-0.1-0.1-0.2,0-0.2c0.1-0.1,0.2-0.1,0.2,0   c0.6,0.4,1.1,0.9,1.5,1.5c0.3,0.4,0.6,0.8,0.9,1.2c0.1,0.1,0.1,0.3,0.2,0.4c0.2,0.4,0.5,0.8,0.8,1.2c0.2,0.2,0.5,0.4,0.7,0.5   c0.1,0,0.1,0.1,0.1,0.2C83.2,23.9,83.1,23.9,83,23.9z"></path>		<path id="XMLID_473_" class="st5" d="M80.8,31.9c-0.1,0-0.1-0.1-0.1-0.2c0.2-1,0-2.1-0.5-3.1c-0.4-0.9-1.2-1.7-2.1-2.4   c-0.1-0.1-0.1-0.2,0-0.2c0.1-0.1,0.2-0.1,0.2,0c0.9,0.7,1.7,1.5,2.2,2.5c0.5,1,0.7,2.2,0.5,3.3C81,31.8,80.9,31.9,80.8,31.9   C80.8,31.9,80.8,31.9,80.8,31.9z"></path>		<path id="XMLID_472_" class="st5" d="M83.9,29.7c-0.1,0-0.1-0.1-0.1-0.2c0-0.5,0.3-1,0.5-1.5c0.1-0.1,0.1-0.3,0.2-0.4   c0.2-0.4,0.3-0.9,0.5-1.3c0.2-0.5,0.3-1,0.6-1.5c0-0.1,0.1-0.1,0.2-0.1c0.1,0,0.1,0.1,0.1,0.2c-0.2,0.5-0.4,1-0.6,1.4   c-0.2,0.4-0.3,0.9-0.5,1.3c-0.1,0.1-0.1,0.3-0.2,0.4c-0.2,0.5-0.5,0.9-0.5,1.3C84.1,29.7,84.1,29.7,83.9,29.7   C84,29.7,84,29.7,83.9,29.7z"></path>		<path id="XMLID_471_" class="st5" d="M83.2,35.9C83.1,35.9,83.1,35.8,83.2,35.9c-0.1-0.1-0.1-0.2-0.1-0.3c0.9-0.7,1.7-1.5,2.3-2.5   c0-0.1,0.1-0.1,0.2-0.1c0.1,0,0.1,0.1,0.1,0.2c-0.6,1-1.4,1.9-2.4,2.6C83.3,35.9,83.2,35.9,83.2,35.9z"></path>	</g>	<g id="XMLID_467_">		<polygon id="XMLID_469_" class="st2" points="109.3,24.9 98.1,42.5 78.6,73.1 76.9,72 96.1,41.8 107.6,23.8   "></polygon>		<path id="XMLID_468_" class="st6" d="M98.1,42.5L78.6,73.1L76.9,72l19.3-30.2C96.4,42,97.3,42.6,98.1,42.5z"></path>	</g>	<g id="XMLID_464_">		<path id="XMLID_466_" class="st2" d="M103.9,17.3l-8.7,24.8c-0.9,0.2-1.7-0.2-2-0.4l8.8-25L103.9,17.3z"></path>		<path id="XMLID_465_" class="st2" d="M95.2,42.1L85,71.3l-1.9-0.7l10.1-28.9C93.5,41.9,94.3,42.3,95.2,42.1z"></path>	</g>	<g id="XMLID_460_">		<path id="XMLID_463_" class="st1" d="M82.5,67.8c-0.4,2,6.8,5.6,7.6,5.7c0.8,0,6.4-5.6,6.4-6.4c0-0.7-6.1-6-6.7-6.1   C89.2,60.9,82.7,66.7,82.5,67.8z"></path>		<path id="XMLID_462_" class="st1" d="M72.5,63.2c-0.3,2.3,4.3,8.8,6.3,8.9c2,0.1,7.7-3.2,8.2-4.3c0.5-1.1-3.1-8.8-4.6-9.4   C80.9,57.8,72.6,61.8,72.5,63.2z"></path>		<path id="XMLID_461_" class="st1" d="M88.5,59.9c2.2,0.9,9.6-2,10.2-3.9c0.6-1.9-1.2-8.2-2.1-9c-0.9-0.7-9.3,0.8-10.3,2   C85.4,50.4,87.2,59.4,88.5,59.9z"></path>	</g>	<g id="XMLID_454_">		<circle id="XMLID_459_" class="st7" cx="78.4" cy="41.8" r="1"></circle>		<circle id="XMLID_458_" class="st7" cx="82.4" cy="46.3" r="0.7"></circle>		<circle id="XMLID_457_" class="st7" cx="85.8" cy="52.3" r="0.7"></circle>		<circle id="XMLID_456_" class="st7" cx="72.3" cy="47.7" r="0.7"></circle>		<circle id="XMLID_455_" class="st7" cx="82.1" cy="49.3" r="1.3"></circle>	</g>	<g id="XMLID_446_">		<path id="XMLID_453_" class="st8" d="M89.8,13.5c0.2,0.4,0.4,0.8,0.6,1.3c0.2,0.4,0.3,0.9,0.4,1.3c0.2,0.9,0.4,1.8,0.5,2.7   c0.1,0.9,0.1,1.8,0,2.7c0,0.2-0.1,0.5-0.1,0.7c0,0.1,0,0.2-0.1,0.3c0,0.1-0.1,0.2-0.1,0.3c-0.1,0.4-0.3,0.9-0.5,1.3   c-0.1,0.2-0.3,0.3-0.5,0.1c-0.1-0.1-0.2-0.2-0.2-0.3l0,0c0-0.2-0.1-0.4-0.1-0.7c0-0.1,0-0.2,0-0.3c0-0.1,0-0.2,0-0.3   c0-0.2,0-0.4,0-0.6c0-0.2,0-0.4,0-0.6c-0.1-0.8-0.1-1.7-0.2-2.5c-0.1-0.8-0.1-1.7-0.1-2.6c0-0.9-0.1-1.7,0-2.6l0,0   c0-0.2,0.2-0.4,0.4-0.4C89.6,13.3,89.7,13.4,89.8,13.5z"></path>		<path id="XMLID_451_" class="st8" d="M96.2,12.2c0,0.4,0,0.8-0.1,1.2c0,0.4-0.1,0.7-0.2,1.1c-0.2,0.7-0.3,1.4-0.6,2.1   c-0.1,0.3-0.2,0.7-0.4,1c-0.1,0.3-0.3,0.7-0.5,1c-0.1,0.2-0.2,0.3-0.3,0.5c-0.1,0.2-0.2,0.3-0.3,0.5c-0.1,0.2-0.2,0.3-0.3,0.5   c-0.1,0.2-0.3,0.3-0.4,0.5l0,0c0,0-0.1,0-0.2,0c0,0,0,0,0,0c-0.1-0.2-0.1-0.4-0.2-0.6c0-0.2,0-0.4,0-0.6c0-0.4,0-0.8,0.1-1.2   c0.1-0.7,0.4-1.4,0.7-2.1c0.3-0.7,0.6-1.3,1-2c0.2-0.3,0.4-0.6,0.6-0.9c0.2-0.3,0.5-0.6,0.8-0.9C96.1,12.1,96.1,12.1,96.2,12.2   C96.2,12.1,96.2,12.2,96.2,12.2z"></path>		<path id="XMLID_450_" class="st8" d="M98.8,17.9c-0.5,1-1,2-1.6,2.9c-0.6,0.9-1.1,1.9-1.7,2.8l-1.7,2.8c-0.6,0.9-1.1,1.9-1.7,2.9   l0,0c0,0-0.1,0-0.1,0c0,0,0,0,0-0.1c0.1-1.1,0.4-2.2,0.8-3.3c0.4-1.1,0.9-2.1,1.5-3c0.6-1,1.2-1.9,2-2.7c0.4-0.4,0.7-0.8,1.1-1.2   c0.4-0.4,0.8-0.8,1.3-1.1C98.8,17.8,98.8,17.8,98.8,17.9C98.8,17.9,98.9,17.9,98.8,17.9L98.8,17.9z"></path>		<circle id="XMLID_449_" class="st8" cx="87.3" cy="6.8" r="1"></circle>		<circle id="XMLID_448_" class="st8" cx="92.5" cy="6.7" r="1"></circle>		<circle id="XMLID_447_" class="st8" cx="91.5" cy="1.7" r="1.7"></circle>	</g>	<g id="XMLID_436_">		<path id="XMLID_445_" class="st1" d="M104,39.9c-0.4,1.6-7.6,1.2-16-1c-8.4-2.2-14.9-5.3-14.4-7c0,0,0,0,0,0l0,0   c0.4-1.2,1.6-1.7,2.4-2c-0.4,0.1-0.7,0.4-0.8,0.6c-0.4,1.5,5.6,4.4,13.3,6.4s14.4,2.5,14.8,0.9c0.1-0.3-0.1-0.6-0.3-0.9   c0.5,0.6,1.2,1.5,1.1,2.7C104.1,39.8,104,39.9,104,39.9z"></path>		<path id="XMLID_444_" class="st9" d="M78.6,36L74,46c-0.3,0.7,0,1.5,0.7,1.8l0,0c0.6,0.2,1.3,0,1.6-0.6l5.3-9.6L78.6,36z"></path>		<path id="XMLID_443_" class="st9" d="M69.8,58.3c-0.1,1.8-0.2,4.8,0.7,7c0.1,0.3,0.4,0.6,0.8,0.7l0.9,0.2c0.7,0.2,1.5-0.4,1.5-1.1   c0-1.6,0-4.1,0.3-5.8c0.1-0.6-0.2-1.1-0.8-1.3l-1.8-0.6C70.7,57.1,69.9,57.6,69.8,58.3z"></path>		<path id="XMLID_442_" class="st9" d="M104.8,39.9c0,0.3-0.1,0.6-0.3,0.8c-0.2,0.2-0.4,0.3-0.5,0.4c-0.4,0.2-0.8,0.3-1.1,0.4   c-0.4,0.1-0.7,0.1-1.1,0.2c-0.4,0-0.7,0.1-1.1,0.1c-1.5,0-2.9-0.1-4.3-0.2c-1.4-0.2-2.8-0.4-4.2-0.7c-1.4-0.3-2.8-0.6-4.2-1   c-2.8-0.7-5.5-1.6-8.1-2.7c-1.3-0.6-2.6-1.2-3.9-1.9c-0.6-0.4-1.2-0.8-1.8-1.2c-0.3-0.2-0.6-0.5-0.8-0.8c-0.1-0.2-0.2-0.3-0.3-0.5   c0-0.1-0.1-0.2-0.1-0.4c0-0.1,0-0.3,0-0.4l0,0l0.3,0.4l0,0c-0.2,0-0.3-0.2-0.3-0.3c0-0.2,0.2-0.3,0.3-0.3l0,0   c0.2,0,0.3,0.2,0.3,0.3c0,0,0,0.1,0,0.1l0,0l0,0c0,0.1,0,0.2,0.1,0.3c0.1,0.1,0.1,0.2,0.3,0.3c0.2,0.2,0.5,0.4,0.7,0.6   c0.6,0.4,1.2,0.7,1.8,1c0.6,0.3,1.3,0.6,1.9,0.9c0.6,0.3,1.3,0.5,2,0.8c2.6,1,5.3,1.8,8.1,2.5c1.4,0.3,2.7,0.7,4.1,0.9   c1.4,0.3,2.8,0.5,4.1,0.7c1.4,0.2,2.8,0.4,4.1,0.5c0.7,0,1.4,0.1,2,0c0.3,0,0.6-0.1,0.9-0.2c0.1,0,0.3-0.1,0.3-0.2   c0,0,0.1-0.1,0.1-0.1c0,0,0-0.1,0.1-0.1l0,0c0-0.2,0.2-0.3,0.4-0.3C104.7,39.6,104.8,39.7,104.8,39.9z"></path>		<path id="XMLID_441_" class="st9" d="M88.5,36.8c1.3,0.2,2.6,0.4,3.9,0.6c1.3,0.2,2.6,0.4,3.8,0.5c1.3,0.1,2.6,0.3,3.8,0.3   c0.6,0,1.3,0,1.9,0c0.3,0,0.6-0.1,0.9-0.1c0.1,0,0.3-0.1,0.3-0.1c0,0,0.1,0,0.1-0.1c0,0,0.1,0,0.1-0.1l0.1-0.1   c0.1-0.1,0.3-0.2,0.5-0.1c0.1,0.1,0.1,0.2,0.1,0.3c0,0.1-0.1,0.3-0.1,0.4c-0.1,0.1-0.1,0.2-0.2,0.3c-0.2,0.1-0.3,0.2-0.5,0.3   c-0.3,0.2-0.7,0.3-1,0.3c-0.7,0.1-1.4,0.2-2,0.2c-1.3,0-2.7-0.2-4-0.4c-1.3-0.2-2.6-0.5-3.9-0.8c-1.3-0.3-2.5-0.7-3.8-1.2   c-0.1,0-0.1-0.1-0.1-0.2C88.3,36.8,88.4,36.8,88.5,36.8z"></path>	</g>	<g id="XMLID_240_">		<g id="XMLID_248_">			<g id="XMLID_421_">				<g id="XMLID_39_">					<path id="XMLID_40_" class="st0" d="M0,66.7c1.9-0.7,3-1.9,3.6-3.4c0.6-1.6,0.7-3.6,0.7-5.8c0-11.3,0-18.3,0-31.2      c0-0.9-0.5-1.9-1.3-2.8c-0.7-0.7-1.6-1.4-2.7-1.9v-0.4c4.1,0.3,6.3,0.5,8.5,0.5c2.2,0,4.4-0.2,8.5-0.5v0.4      c-1.1,0.5-2,1.2-2.7,1.9c-0.8,0.9-1.3,1.9-1.3,2.8c0,14.1-0.1,24.1-0.1,38.2c0,1.3,0.6,2,1.5,2.4c-1.2-0.1-2.3-0.1-3.3-0.2      c-1.7-0.1-3.2-0.2-5.1-0.2c-1.2,0-2.7,0.1-4.2,0.3c-0.7,0.1-1.4,0.1-2.1,0.2V66.7z M17.3,22.5c12.4-4.9,21.4,6.6,3.9,12.7      c0.2,0,0.3,0,0.5,0c5.8,0.5,10.3,5,12.3,10.4c0.8,2.2,1.2,4.6,1.2,6.9c-0.1,2.3-0.6,4.6-1.7,6.6c-2.3,4.2-6.9,7.3-14.6,7.7      c3.3-1.2,5.4-4.8,6.4-9.2c0.5-2.3,0.7-4.7,0.7-7.2c0-2.4-0.4-4.8-0.9-7c-1.2-4.5-4.3-8.8-9.5-7.9      C22.2,33.6,32.1,21.1,17.3,22.5z"></path>				</g>			</g>			<g id="XMLID_412_">				<g id="XMLID_37_">					<path id="XMLID_38_" class="st2" d="M41.1,29c-0.7-0.7-1.6-1.4-2.7-1.9v-0.4c4.1,0.3,6.3,0.5,8.5,0.5c2.2,0,4.4-0.2,8.5-0.5      v0.4c-1.1,0.5-2,1.2-2.7,1.9c-0.8,0.9-1.3,1.9-1.3,2.8v16.6l0.6,0.1c1.7-0.5,3.2-1,4.7-1.6c2.3-1,4.3-2.3,6-4.1l0.4-0.1      l-0.7,1.1c-0.9,1.5-1.3,2.2-1.6,2.8c-0.3,0.6-0.5,1.2-0.9,2.2l0,0l0,0c0.4,1,0.6,1.6,0.9,2.2c0.3,0.7,0.8,1.4,1.6,2.8l0.7,1.1      l-0.4-0.1c-1.7-1.9-3.7-3.2-6-4.1c-1.4-0.6-3-1.1-4.7-1.6l-0.6,0.1v18.2c0,0.9,0.5,1.9,1.3,2.8c0.7,0.7,1.6,1.4,2.7,1.9v0.4      c-4.1-0.3-6.3-0.5-8.5-0.5c-2.2,0-4.4,0.2-8.5,0.5v-0.4c1.1-0.5,2-1.2,2.7-1.9c0.8-0.9,1.3-1.9,1.3-2.8V31.8      C42.4,30.8,41.9,29.9,41.1,29z M59.4,28.1c-2-0.3-4.5,0.5-5.9,1.1c5.8-4.9,10.3-1.9,12.2-2.2c1.2-0.2,2-0.7,2.1-1.9l0.8,0.2      c0.8,3.3,2.4,6.8,4.8,10.8L73,36.1C70,32.7,64.5,28.9,59.4,28.1L59.4,28.1z"></path>				</g>			</g>			<g id="XMLID_249_">				<g id="XMLID_321_">					<g id="XMLID_409_">						<path id="XMLID_411_" class="st4" d="M34.9,27.4c-6.2-2.3-3-6.6,1.4-4.8c-5.3-0.5-1.8,4.1,0.6,4.9c-1.8-0.3-2.9,1.3-3.4,3       c-0.2,0.8-0.3,1.7-0.3,2.6c0,0.9,0.1,1.8,0.2,2.7c0.4,1.6,1.1,3,2.3,3.4c-2.7-0.1-4.4-1.3-5.2-2.9c-0.4-0.8-0.6-1.6-0.6-2.5       c0-0.9,0.1-1.8,0.4-2.6c0.7-2,2.3-3.7,4.4-3.9C34.8,27.4,34.8,27.4,34.9,27.4L34.9,27.4z"></path>					</g>					<path id="XMLID_322_" class="st4" d="M35.8,39.2c0.7-0.1,1.9-0.8,2-1.5c-0.5-0.2-0.8-0.7-0.9-1.2c-0.1-0.5,0-1.1,0.2-1.7      c0.3-0.6,0.7-1,1.2-1.2c0.5-0.2,1-0.2,1.5,0c0.2,0.1,0.3,0.2,0.4,0.3c0.3,0.3,0.4,0.8,0.5,1.2c0.1,2-2.1,3.5-3.3,3.8      C36.8,39.2,36.3,39.2,35.8,39.2z"></path>				</g>				<path id="XMLID_318_" class="st4" d="M34.3,22c2.4-0.8,3.3,0.8,3.9,1c0.4,0.1,0.7,0,0.9-0.3l0.2,0.2c-0.2,1.1-0.2,2.5,0,4.1     l-0.1-0.1c-0.5-1.5-1.6-3.5-3.1-4.4C35.7,22.1,34.8,22,34.3,22z"></path>				<path id="XMLID_307_" class="st4" d="M36.6,35.2c0.3-2.6,2.1-2.9,2.5-3.4c0.3-0.3,0.3-0.7,0.1-1l0.2-0.1     c0.9,0.7,2.1,1.2,3.5,1.6l-0.1,0.1c-1.5-0.2-3.7,0.2-5,1.1C37.3,33.9,36.8,34.7,36.6,35.2z"></path>			</g>		</g>	</g></g></svg>